<?xml version="1.0" encoding="UTF-8"?>
<svg width="16px" height="16px" viewBox="0 0 16 16" version="1.1" xmlns="http://www.w3.org/2000/svg" xmlns:xlink="http://www.w3.org/1999/xlink">
    <!-- Generator: Sketch 63 (92445) - https://sketch.com -->
    <title>content-16px@2x</title>
    <desc>Created with Sketch.</desc>
    <g id="视频中心" stroke="none" stroke-width="1" fill="none" fill-rule="evenodd">
        <g id="2.1.4视频中心-详情-查看pdf" transform="translate(-24.000000, -19.000000)">
            <g id="新建章节备份" transform="translate(24.000000, 19.000000)">
                <rect id="Rectangle" x="0" y="0" width="16" height="16"></rect>
                <path d="M2.21163391,2.57634043 L2.21163387,2.57634043 C1.70815202,2.57634043 1.3,2.98449245 1.3,3.48797431 C1.3,3.99145616 1.70815202,4.39960818 2.21163387,4.39960818 L2.21163383,4.39960818 C2.71511569,4.39960818 3.12326771,3.99145616 3.12326771,3.48797431 C3.12326771,2.98449245 2.71511569,2.57634043 2.21163383,2.57634043 L2.21163391,2.57634043 Z M2.21163391,7.12539569 L2.21163387,7.12539569 C1.70815202,7.12539569 1.3,7.53354771 1.3,8.03702956 C1.3,8.54051142 1.70815202,8.94866344 2.21163387,8.94866344 L2.21163383,8.94866344 C2.71511569,8.94866344 3.12326771,8.54051142 3.12326771,8.03702956 C3.12326771,7.53354771 2.71511569,7.12539569 2.21163383,7.12539569 L2.21163391,7.12539569 Z M2.21163391,11.6767323 L2.21163387,11.6767323 C1.70815202,11.6767323 1.3,12.0848843 1.3,12.5883661 C1.3,13.091848 1.70815202,13.5 2.21163387,13.5 L2.21163383,13.5 C2.71511569,13.5 3.12326771,13.091848 3.12326771,12.5883661 C3.12326771,12.0848843 2.71511569,11.6767323 2.21163383,11.6767323 L2.21163391,11.6767323 Z M5.99149809,2.5 L5.99149805,2.5 C5.50563792,2.5 5.11177136,2.89386656 5.11177136,3.37972669 C5.11177136,3.37972669 5.11177136,3.37972669 5.11177136,3.37972669 L5.11177136,3.44240152 C5.11177136,3.9289861 5.50605301,4.32326775 5.99263759,4.32326775 L13.6184572,4.32326775 L13.6184571,4.32326775 C14.1043173,4.32326775 14.4981849,3.92940118 14.4981849,3.44354217 C14.4981849,3.44316208 14.4981849,3.44278198 14.4981849,3.4424019 L14.4981849,3.37972707 L14.4981849,3.37972707 C14.4981849,2.89386694 14.1043176,2.5 13.6184575,2.5 L5.99263793,2.5 L5.99149809,2.5 Z M13.6344108,11.6003807 L5.95731182,11.6003807 L5.95731178,11.6003807 C5.47145165,11.6003807 5.07758509,11.9942473 5.07758509,12.4801074 C5.07758509,12.4801074 5.07758509,12.4801074 5.07758509,12.4801074 L5.07758509,12.5439217 C5.07758509,13.0293668 5.47186674,13.4236492 5.95731178,13.4236492 L13.6355459,13.4236492 L13.6355458,13.4236492 C14.1214048,13.4242778 14.5157822,13.0309214 14.5164117,12.5450624 C14.5164117,12.5446823 14.5164117,12.5443022 14.5164117,12.5439221 L14.5164117,12.4789681 L14.5164117,12.4789712 C14.5151564,11.9931133 14.1202727,11.600265 13.6344148,11.6015203 C13.6344128,11.6015203 13.6344109,11.6015203 13.6344089,11.6015203 L13.6344108,11.6003807 Z M11.306328,7.05019035 L5.97896757,7.05019035 L5.97896753,7.05019035 C5.49310741,7.05019035 5.09924085,7.44405691 5.09924085,7.92991703 L5.09924085,7.99259186 C5.09924085,8.47917644 5.4935225,8.87345809 5.97896753,8.87345809 L11.306328,8.87345809 L11.3063279,8.87345809 C11.7921881,8.87345809 12.1860557,8.47959153 12.1860557,7.99373252 C12.1860557,7.99335242 12.1860557,7.99297233 12.1860557,7.99259224 L12.1860557,7.92991741 L12.1860557,7.92991741 C12.1860557,7.44405729 11.7921884,7.05019035 11.3063283,7.05019035 C11.3063283,7.05019035 11.3063283,7.05019035 11.3063283,7.05019035 L11.306328,7.05019035 Z" id="Shape" fill="#8A909A" fill-rule="nonzero"></path>
            </g>
        </g>
    </g>
</svg>