<?xml version="1.0" encoding="UTF-8"?>
<svg width="16px" height="16px" viewBox="0 0 16 16" version="1.1" xmlns="http://www.w3.org/2000/svg" xmlns:xlink="http://www.w3.org/1999/xlink">
    <!-- Generator: Sketch 63 (92445) - https://sketch.com -->
    <title>Group 10</title>
    <desc>Created with Sketch.</desc>
    <g id="视频中心" stroke="none" stroke-width="1" fill="none" fill-rule="evenodd">
        <g id="2.1.3视频中心-详情-相关资料" transform="translate(-1142.000000, -19.000000)">
            <g id="编组-5">
                <g id="编组-8" transform="translate(1115.000000, 0.000000)">
                    <g id="Group-10" transform="translate(25.000000, 17.000000)">
                        <g id="搜索-首页">
                            <rect id="Rectangle" fill="#D8D8D8" opacity="0" x="0" y="0" width="20" height="20"></rect>
                            <path d="M17.789926,16.5592796 L14.5082852,13.2376188 C15.3967294,12.0610305 15.9329975,10.5882941 15.9329975,8.98749375 C15.9329975,5.12956478 12.8354487,2 9.02554379,2 C5.21563884,2 2.11008607,5.12956478 2.11008607,8.98749375 C2.11008607,12.8454227 5.20763484,15.9749875 9.01753979,15.9749875 C10.6503562,15.9749875 12.1471046,15.4067034 13.3316969,14.4462231 L16.5973297,17.7518759 C16.7654137,17.91996 16.9735178,18 17.1896258,18 C17.4057339,18 17.6218419,17.91996 17.781922,17.7518759 C18.1180901,17.4237119 18.1180901,16.8874437 17.789926,16.5592796 M5.32769487,12.7333667 C4.33519862,11.7328664 3.79092649,10.4042021 3.79092649,8.98749375 C3.79092649,7.57878939 4.33519862,6.25012506 5.31969087,5.24962481 C6.31218712,4.24912456 7.62484344,3.70485243 9.02554379,3.70485243 C10.4262441,3.70485243 11.7389005,4.25712856 12.7233927,5.25762881 C13.707885,6.25812906 14.2521571,7.5867934 14.2521571,8.99549775 C14.2521571,10.4042021 13.707885,11.7328664 12.7233927,12.7333667 C11.7389005,13.7338669 10.4262441,14.2861431 9.02554379,14.2861431 C7.62484344,14.2861431 6.31218712,13.7258629 5.32769487,12.7333667" id="Shape" fill="#BCC2CB" fill-rule="nonzero"></path>
                        </g>
                    </g>
                </g>
            </g>
        </g>
    </g>
</svg>