<?xml version="1.0" encoding="UTF-8"?>
<svg width="9px" height="9px" viewBox="0 0 9 9" version="1.1" xmlns="http://www.w3.org/2000/svg" xmlns:xlink="http://www.w3.org/1999/xlink">
    <!-- Generator: Sketch 63 (92445) - https://sketch.com -->
    <title>视频标记@2x</title>
    <desc>Created with Sketch.</desc>
    <defs>
        <rect id="path-1" x="0" y="0" width="9" height="9"></rect>
    </defs>
    <g id="视频中心" stroke="none" stroke-width="1" fill="none" fill-rule="evenodd">
        <g id="2.1.2视频中心-详情-视频比例偏移" transform="translate(-1024.000000, -330.000000)">
            <g id="编组-11" transform="translate(144.000000, 155.000000)">
                <g id="编组-4" transform="translate(833.000000, 1.000000)">
                    <g id="编组-3" transform="translate(46.000000, 173.000000)">
                        <g id="视频标记" transform="translate(1.000000, 1.000000)">
                            <mask id="mask-2" fill="white">
                                <use xlink:href="#path-1"></use>
                            </mask>
                            <use id="矩形" fill-opacity="0.01" fill="#FFFFFF" xlink:href="#path-1"></use>
                            <path d="M5.98606564,1.0890915 C5.86703786,0.970302834 5.67430131,0.970302834 5.55527354,1.0890915 C5.52927999,1.11508343 4.97465342,1.68194112 5.187859,2.42723779 L4.31634469,3.29840549 C3.84028292,3.15384364 2.60777945,2.90356181 1.70092559,3.81065093 C1.58193503,3.9297048 1.58193503,4.12265422 1.70092559,4.24170809 L3.0140383,5.55473859 L1.08000085,7.48923903 C0.969830803,7.60958669 0.97393235,7.79533033 1.08930742,7.91069817 C1.20468248,8.02606602 1.39043775,8.03016731 1.51079294,7.92000416 L3.44512245,5.9860878 L4.75823516,7.29911829 C4.81525919,7.35654551 4.89284493,7.38884219 4.97377724,7.38884219 C5.05470954,7.38884219 5.13229528,7.35654551 5.18931931,7.29911829 C6.09646524,6.39202916 5.84616773,5.16018694 5.70130476,4.68386293 L6.57281907,3.81240319 C7.31845446,4.02559543 7.88505558,3.47071154 7.91075708,3.44501165 C8.02974764,3.32595778 8.02974764,3.13300836 7.91075708,3.01395449 L5.98606564,1.0890915 Z" id="形状" fill="#FAFAFA" fill-rule="nonzero" mask="url(#mask-2)"></path>
                            <path d="M4.96505598,5 C5.01164801,5.22065766 5.03494402,5.38732432 5.03494402,5.5 C5.03494402,5.61267568 5.01164801,5.77934234 4.96505598,6" id="路径-2" stroke="#FAFAFA" stroke-linecap="round" mask="url(#mask-2)"></path>
                        </g>
                    </g>
                </g>
            </g>
        </g>
    </g>
</svg>