<?xml version="1.0" encoding="UTF-8"?>
<svg width="16px" height="18px" viewBox="0 0 16 18" version="1.1" xmlns="http://www.w3.org/2000/svg" xmlns:xlink="http://www.w3.org/1999/xlink">
    <!-- Generator: Sketch 63 (92445) - https://sketch.com -->
    <title>通知</title>
    <desc>Created with Sketch.</desc>
    <g id="视频中心" stroke="none" stroke-width="1" fill="none" fill-rule="evenodd">
        <g id="2.1.3视频中心-详情-相关资料" transform="translate(-1186.000000, -18.000000)">
            <g id="编组-5">
                <g id="编组-8" transform="translate(1115.000000, 0.000000)">
                    <g id="编组-9" transform="translate(69.000000, 16.000000)">
                        <g id="通知" transform="translate(0.000000, 1.000000)">
                            <rect id="Rectangle" x="0" y="0" width="20" height="20"></rect>
                            <g transform="translate(2.000000, 1.000000)" fill-rule="nonzero">
                                <path d="M14.5227456,15.0000054 L10.0227404,15.0000054 L10.0227404,15.7500131 L10.0227404,15.7500131 C10.0227404,16.9926543 9.01537904,18.0000157 7.77273775,18.0000157 C6.53009646,18.0000157 5.52273513,16.9926543 5.52273513,15.7500131 L5.52273513,15.0000054 L1.02272989,15.0000054 L1.02272993,15.0000054 C0.608516749,15.000075 0.27261421,14.6643393 0.27261421,14.2501262 C0.27261421,13.835913 0.608286475,13.5000737 1.02249965,13.5000054 C1.0225762,13.5000054 1.02265275,13.5000054 1.02272929,13.5000054 L1.77273075,13.5000054 L1.77273075,7.50000539 C1.77273075,4.44076161 4.06398928,1.92149696 7.02274272,1.55175825 L7.02274272,0.750006732 L7.02274272,0.750006845 C7.02274266,0.335793668 7.35852924,5.38667443e-06 7.77274418,5.38667443e-06 C8.18695735,5.38667443e-06 8.52274564,0.33579191 8.52274564,0.750006845 C8.52274564,0.750006845 8.52274564,0.750006845 8.52274564,0.750006845 L8.52274564,1.55175836 C11.4814991,1.92150938 13.7727576,4.44076173 13.7727576,7.50000539 L13.7727576,13.5000054 L14.5227591,13.5000054 L14.5227591,13.5000054 C14.9369722,13.4999471 15.2728748,13.8356828 15.2728748,14.249896 C15.2728748,14.6641092 14.9372025,14.9999484 14.5229893,15.0000054 C14.5229128,15.0000054 14.5228362,15.0000054 14.5227597,15.0000054 L14.5227456,15.0000054 Z" id="Path" fill="#BCC2CB"></path>
                                <path d="M8.52273101,15.0000115 L8.52273101,15.7500129 L8.52273101,15.7500129 L8.51588442,15.8517838 C8.46622215,16.21786 8.15242788,16.5000115 7.77273247,16.5000115 C7.35851754,16.5000115 7.02273101,16.1642261 7.02273101,15.750013 L7.02273101,15.750013 L7.02273101,15.0000115 L8.52273101,15.0000115 Z M7.77273251,3.00000408 C10.2580238,3.00000408 12.272743,5.01472322 12.272743,7.50000408 L12.272743,7.50000408 L12.272743,13.5000041 L3.27273251,13.5000041 L3.27273251,7.50000408 C3.27273251,5.01472322 5.28745165,3.00000408 7.77273251,3.00000408 Z" id="Combined-Shape" fill="#FFFFFF"></path>
                            </g>
                        </g>
                    </g>
                </g>
            </g>
        </g>
    </g>
</svg>