<?xml version="1.0" encoding="UTF-8"?>
<svg width="14px" height="14px" viewBox="0 0 14 14" version="1.1" xmlns="http://www.w3.org/2000/svg" xmlns:xlink="http://www.w3.org/1999/xlink">
    <!-- Generator: Sketch 63 (92445) - https://sketch.com -->
    <title>链接</title>
    <desc>Created with Sketch.</desc>
    <g id="视频中心" stroke="none" stroke-width="1" fill="none" fill-rule="evenodd">
        <g id="2.1.3视频中心-详情-相关资料" transform="translate(-1001.000000, -261.000000)">
            <g id="编组-11" transform="translate(144.000000, 155.000000)">
                <g id="编组-4" transform="translate(833.000000, 1.000000)">
                    <g id="编组-7" transform="translate(24.000000, 102.000000)">
                        <g id="链接" transform="translate(0.000000, 3.000000)">
                            <rect id="矩形" x="0" y="0" width="14" height="14"></rect>
                            <path d="M8.48225575,5.62058481 L8.48225574,5.6205848 C8.39091197,5.5302581 8.29354703,5.44623073 8.19083162,5.36908159 L8.19083165,5.36908161 C7.96382559,5.14711816 7.59986448,5.15120745 7.37790103,5.37821345 C7.27154748,5.4869835 7.21264377,5.63347493 7.21409303,5.78559289 L7.21409302,5.78558973 C7.21458874,5.98664117 7.31937138,6.17303503 7.4908771,6.277953 C7.54543606,6.323197 7.59999501,6.36711034 7.64923076,6.41767674 L7.69713619,6.4642514 C8.29595443,7.06306964 8.1163086,8.09037699 7.5188215,8.6891964 L4.96653422,11.2388284 C4.36904711,11.8363156 3.39629719,11.8363156 2.79881125,11.2388284 L2.75090582,11.190923 C2.15208758,10.5921048 2.15208758,9.62068598 2.75090582,9.02453351 L3.87801368,7.89742565 L3.87801365,7.89742567 C4.1499411,7.68442802 4.19771307,7.29131783 3.98471495,7.01939154 C3.86553826,6.86724201 3.68271318,6.77873736 3.4894473,6.77963335 L3.48944731,6.77963335 C3.36358809,6.77961664 3.24066484,6.81765336 3.13681013,6.88875127 L3.13681013,6.88608985 L3.12350308,6.89806623 L3.12350305,6.89806625 C3.07897515,6.9295503 3.0387183,6.96667608 3.00373917,7.00851471 L1.83272288,8.10501604 L1.8327229,8.10501602 C0.73075904,9.21278045 0.73075904,11.0026825 1.83272286,12.110441 L1.8806283,12.1570158 L1.88062853,12.157016 C2.988538,13.2573704 4.77680943,13.2573704 5.88472008,12.1570156 L8.43568559,9.60605008 C9.53484917,8.50422542 9.62800223,6.76765266 8.52883503,5.66715795 L8.48226025,5.62058329 L8.48225575,5.62058481 Z M12.1576715,1.87863612 L12.1110969,1.83206146 L12.1110968,1.83206141 C11.003488,0.730979513 9.21461181,0.730979513 8.10700529,1.83206151 L5.55603978,4.38302702 C4.45554624,5.48352056 4.39433318,7.07371394 5.49615795,8.17554211 L5.54273261,8.22211677 C5.59329948,8.27135286 5.64519701,8.3192583 5.69709406,8.36450277 C5.7370152,8.40708534 5.78092855,8.44434516 5.83016452,8.47228991 L5.83282593,8.47362062 L5.83282596,8.47362063 C6.09515247,8.62187505 6.42799237,8.52940065 6.57624679,8.26707391 C6.66366829,8.11238728 6.67028836,7.92481904 6.59398983,7.76435406 C6.52213173,7.60200819 6.38773085,7.5035353 6.2945813,7.41038575 L6.24667586,7.36514175 C5.64918875,6.76632351 5.87673989,5.89870445 6.474227,5.29988505 L9.02652598,2.750253 L9.02652612,2.75025286 C9.62501098,2.15263007 10.5944354,2.15263007 11.1929156,2.75025314 L11.2408211,2.7968278 C11.8396393,3.39564603 11.8396393,4.36706483 11.2408211,4.96588423 L10.1177054,6.08899988 L10.1177055,6.08899984 C9.84063012,6.29029459 9.77919715,6.67808963 9.98049073,6.95516496 C10.0980216,7.11694235 10.2863514,7.21211667 10.4863103,7.21078437 L10.4863103,7.21078437 C10.601538,7.21069588 10.7144522,7.17843474 10.8123332,7.11763493 L10.8149946,7.12162706 L10.8322937,7.10565858 L10.8322937,7.10565859 C10.8857472,7.06971211 10.9333265,7.02572367 10.9733486,6.97524921 L12.1576761,5.88274009 L12.1576762,5.88274001 C13.2594869,4.77543177 13.2594857,2.98595085 12.1576761,1.87864846 L12.1576715,1.87863612 Z" id="形状" fill="#8A909A" fill-rule="nonzero"></path>
                        </g>
                    </g>
                </g>
            </g>
        </g>
    </g>
</svg>